# xmcd
#
# Track frame offsets:
#	150
#	10955
#	22632
#	32595
#	44470
#	58387
#	71225
#	82492
#	93410
#	106755
#	116837
#	124852
#	129805
#	145765
#	156920
#	172452
#	183707
#	199805
#	213200
#	224782
#	238322
#	252007
#	268387
#	280855
#	304847
#
# Disc length: 4440 seconds
#
# Revision: 0
# Processed by: cddbd v1.5PL3 Copyright (c) Steve Scherf et al.
# Submitted via: dBpowerAMP V4.0
#
DISCID=89115619
DTITLE=Paulo Diniz - Quero Voltar Pra Bahia
DYEAR=2003
DGENRE=Pop
TTITLE0=Piri Piri
TTITLE1=Um Chope Pra Distrair
TTITLE2=Ninfa Mulata
TTITLE3=Quero Voltar Pra Bahia
TTITLE4=Felicidade
TTITLE5=Marginal III
TTITLE6=Chutando Pedra
TTITLE7=Chega
TTITLE8=Canseira
TTITLE9=Ponha Um Arco-Íris Na Sua Moringa
TTITLE10=Me Leva
TTITLE11=Sujeito Chato
TTITLE12=Vou-me Embora Pra Pasárgada
TTITLE13=Capim da Lagoa
TTITLE14=A Seca de 1.932
TTITLE15=Desejo Mudo
TTITLE16=Junco do Seridó
TTITLE17=Poema Pra Léa
TTITLE18=Baião das Alagoas
TTITLE19=Ciranda do Mar
TTITLE20=Peixe Vivo (Part. esp.: Nayde)
TTITLE21=Cravo Vermelho
TTITLE22=Oco do Mundo
TTITLE23=Guarânia Morena
TTITLE24=DATA
EXTD=Paulo Diniz, Quero Voltar Pra Bahia, 2 em 1\n
EXTT0=
EXTT1=
EXTT2=
EXTT3=
EXTT4=
EXTT5=
EXTT6=
EXTT7=
EXTT8=
EXTT9=
EXTT10=
EXTT11=
EXTT12=
EXTT13=
EXTT14=
EXTT15=
EXTT16=
EXTT17=
EXTT18=
EXTT19=
EXTT20=
EXTT21=
EXTT22=
EXTT23=
EXTT24=
PLAYORDER=
